# Blender 4.0.2
# www.blender.org
mtllib cat_leye.mtl
o leye
v 0.561670 -0.937614 0.064432
v 0.632336 -0.870838 0.135098
v 0.679554 -0.770901 0.182315
v 0.696134 -0.653017 0.198896
v 0.679554 -0.535134 0.182315
v 0.632336 -0.435197 0.135098
v 0.561670 -0.368421 0.064432
v 0.596197 -0.937614 -0.018925
v 0.696134 -0.870838 -0.018925
v 0.762910 -0.770901 -0.018925
v 0.786359 -0.653017 -0.018925
v 0.762910 -0.535134 -0.018925
v 0.696134 -0.435197 -0.018925
v 0.596197 -0.368421 -0.018925
v 0.561670 -0.937614 -0.102281
v 0.632336 -0.870838 -0.172947
v 0.679554 -0.770901 -0.220165
v 0.696134 -0.653017 -0.236745
v 0.679554 -0.535134 -0.220165
v 0.632336 -0.435197 -0.172947
v 0.561670 -0.368421 -0.102281
v 0.478314 -0.937614 -0.136808
v 0.478314 -0.870838 -0.236745
v 0.478314 -0.770901 -0.248825
v 0.478314 -0.653017 -0.273907
v 0.478314 -0.535134 -0.303521
v 0.478314 -0.435197 -0.236745
v 0.478314 -0.368421 -0.136808
v 0.394957 -0.937614 -0.102281
v 0.324291 -0.870838 -0.172947
v 0.277074 -0.770901 -0.220165
v 0.260493 -0.653017 -0.236745
v 0.277074 -0.535134 -0.220165
v 0.324291 -0.435197 -0.172947
v 0.394957 -0.368421 -0.102281
v 0.360430 -0.937614 -0.018925
v 0.260493 -0.870838 -0.018925
v 0.193717 -0.770901 -0.018925
v 0.170269 -0.653017 -0.018925
v 0.193717 -0.535134 -0.018925
v 0.260493 -0.435197 -0.018925
v 0.360430 -0.368421 -0.018925
v 0.394957 -0.937614 0.064432
v 0.324291 -0.870838 0.135098
v 0.277074 -0.770901 0.182315
v 0.260493 -0.653017 0.198896
v 0.277074 -0.535134 0.182315
v 0.324291 -0.435197 0.135098
v 0.394957 -0.368421 0.064432
v 0.478314 -0.344973 -0.018925
v 0.478314 -0.961062 -0.018925
v 0.478314 -0.937614 0.098959
v 0.478314 -0.870838 0.198896
v 0.478314 -0.770901 0.265672
v 0.478314 -0.653017 0.289120
v 0.478314 -0.535134 0.265672
v 0.478314 -0.435197 0.198896
v 0.478314 -0.368421 0.098959
v 0.478314 -0.818321 -0.271836
v 0.478314 -0.567342 -0.309928
v 0.540685 -0.770901 -0.277686
v 0.419837 -0.770901 -0.279299
v 0.538815 -0.653017 -0.301909
v 0.413743 -0.653017 -0.300224
v 0.478314 -0.818321 -0.271836
v 0.478314 -0.567342 -0.309928
v 0.540685 -0.770901 -0.277686
v 0.419837 -0.770901 -0.279299
v 0.538815 -0.653017 -0.301909
v 0.413743 -0.653017 -0.300224
v 0.478314 -0.796805 -0.247236
v 0.478314 -0.612056 -0.275868
v 0.509218 -0.653017 -0.273907
v 0.442436 -0.653017 -0.273907
v 0.444898 -0.770901 -0.252778
v 0.508807 -0.770901 -0.248825
vn 0.0805 -0.9776 0.1945
vn 0.0805 0.9776 0.1945
vn 0.3256 0.5253 0.7862
vn 0.3764 -0.1807 0.9087
vn 0.2243 -0.8103 0.5414
vn 0.2243 0.8103 0.5414
vn 0.3764 0.1807 0.9087
vn 0.3256 -0.5253 0.7862
vn 0.9087 -0.1807 0.3764
vn 0.5414 -0.8103 0.2243
vn 0.5414 0.8103 0.2243
vn 0.9087 0.1807 0.3764
vn 0.7862 -0.5253 0.3256
vn 0.1945 -0.9776 0.0805
vn 0.1945 0.9776 0.0805
vn 0.7862 0.5253 0.3256
vn 0.5414 0.8103 -0.2243
vn 0.9087 0.1807 -0.3764
vn 0.7862 -0.5253 -0.3256
vn 0.1945 -0.9776 -0.0805
vn 0.1945 0.9776 -0.0805
vn 0.7862 0.5253 -0.3256
vn 0.9087 -0.1807 -0.3764
vn 0.5414 -0.8103 -0.2243
vn 0.3256 -0.5253 -0.7862
vn 0.0805 -0.9776 -0.1945
vn 0.0805 0.9776 -0.1945
vn 0.3256 0.5253 -0.7862
vn 0.3764 -0.1807 -0.9087
vn 0.2243 -0.8103 -0.5414
vn 0.2243 0.8103 -0.5414
vn 0.3764 0.1807 -0.9087
vn -0.0805 0.9776 -0.1945
vn -0.3256 0.5253 -0.7862
vn -0.0000 -0.1764 -0.9843
vn -0.2243 -0.8103 -0.5414
vn -0.2243 0.8103 -0.5414
vn -0.3764 0.1807 -0.9087
vn 0.1173 -0.0608 -0.9912
vn -0.0805 -0.9776 -0.1945
vn -0.5414 -0.8103 -0.2243
vn -0.5414 0.8103 -0.2243
vn -0.9087 0.1807 -0.3764
vn -0.7862 -0.5253 -0.3256
vn -0.1945 -0.9776 -0.0805
vn -0.1945 0.9776 -0.0805
vn -0.7862 0.5253 -0.3256
vn -0.9087 -0.1807 -0.3764
vn -0.5414 0.8103 0.2243
vn -0.9087 0.1807 0.3764
vn -0.7862 -0.5253 0.3256
vn -0.1945 -0.9776 0.0805
vn -0.1945 0.9776 0.0805
vn -0.7862 0.5253 0.3256
vn -0.9087 -0.1807 0.3764
vn -0.5414 -0.8103 0.2243
vn -0.0805 -0.9776 0.1945
vn -0.0805 0.9776 0.1945
vn -0.3256 0.5253 0.7862
vn -0.3764 -0.1807 0.9087
vn -0.2243 -0.8103 0.5414
vn -0.2243 0.8103 0.5414
vn -0.3764 0.1807 0.9087
vn -0.3256 -0.5253 0.7862
vn 0.5726 -0.5314 -0.6243
vn -0.3764 -0.1807 -0.9087
vn -0.5263 0.6205 -0.5813
vn -0.6014 -0.4841 -0.6356
vn -0.3256 -0.5253 -0.7862
vn -0.6786 -0.1582 -0.7173
vn -0.0000 -1.0000 -0.0000
vn -0.0000 -0.0612 -0.9981
vn -0.0000 -0.0478 -0.9989
vn 0.6729 -0.0954 -0.7336
vn 0.5708 0.6190 -0.5394
vn -0.0000 -0.2081 -0.9781
vn 0.1149 -0.2067 -0.9716
vn 0.5648 -0.5000 -0.6565
vn -0.5587 0.6242 -0.5460
vn -0.6632 -0.1535 -0.7325
vn 0.7226 -0.1073 -0.6829
vn 0.5694 0.6188 -0.5412
vt 0.750000 0.875000
vt 0.687500 1.000000
vt 0.625000 0.875000
vt 0.687500 0.000000
vt 0.750000 0.125000
vt 0.625000 0.125000
vt 0.750000 0.375000
vt 0.625000 0.250000
vt 0.750000 0.250000
vt 0.750000 0.625000
vt 0.625000 0.500000
vt 0.750000 0.500000
vt 0.625000 0.750000
vt 0.750000 0.750000
vt 0.625000 0.375000
vt 0.625000 0.625000
vt 0.500000 0.500000
vt 0.500000 0.750000
vt 0.500000 0.125000
vt 0.500000 0.375000
vt 0.500000 0.625000
vt 0.562500 1.000000
vt 0.500000 0.875000
vt 0.562500 0.000000
vt 0.500000 0.250000
vt 0.375000 0.250000
vt 0.375000 0.125000
vt 0.375000 0.500000
vt 0.375000 0.375000
vt 0.375000 0.750000
vt 0.375000 0.625000
vt 0.437500 1.000000
vt 0.375000 0.875000
vt 0.437500 0.000000
vt 0.250000 0.684313
vt 0.288742 0.625000
vt 0.312500 1.000000
vt 0.250000 0.875000
vt 0.312500 0.000000
vt 0.250000 0.125000
vt 0.250000 0.250000
vt 0.284720 0.500000
vt 0.250000 0.750000
vt 0.250000 0.409152
vt 0.250000 0.375000
vt 0.187500 0.000000
vt 0.125000 0.125000
vt 0.125000 0.250000
vt 0.250000 0.500000
vt 0.229244 0.625000
vt 0.229411 0.500000
vt 0.125000 0.875000
vt 0.125000 0.750000
vt 0.125000 0.500000
vt 0.125000 0.375000
vt 0.250000 0.625000
vt 0.250000 0.657400
vt 0.187500 1.000000
vt 0.000000 0.875000
vt 0.000000 0.750000
vt 0.000000 0.125000
vt 0.000000 0.500000
vt 0.000000 0.375000
vt 0.000000 0.625000
vt 0.125000 0.625000
vt 0.062500 1.000000
vt 0.062500 0.000000
vt 0.000000 0.250000
vt 1.000000 0.250000
vt 0.875000 0.125000
vt 1.000000 0.125000
vt 1.000000 0.500000
vt 0.875000 0.375000
vt 1.000000 0.375000
vt 1.000000 0.750000
vt 0.875000 0.625000
vt 1.000000 0.625000
vt 1.000000 0.875000
vt 0.937500 1.000000
vt 0.875000 0.875000
vt 0.937500 0.000000
vt 0.875000 0.250000
vt 0.875000 0.500000
vt 0.875000 0.750000
vt 0.812500 1.000000
vt 0.812500 0.000000
vt 0.212945 0.500000
vt 0.250000 0.456566
vt 0.268941 0.625000
vt 0.267735 0.500000
vt 0.213678 0.625000
s 0
g leye_yellow
usemtl yellow
f 52/1/1 51/2/1 1/3/1
f 50/4/2 58/5/2 7/6/2
f 56/7/3 6/8/3 57/9/3
f 54/10/4 4/11/4 55/12/4
f 52/1/5 2/13/5 53/14/5
f 58/5/6 6/8/6 7/6/6
f 55/12/7 5/15/7 56/7/7
f 54/10/8 2/13/8 3/16/8
f 3/16/9 11/17/9 4/11/9
f 1/3/10 9/18/10 2/13/10
f 6/8/11 14/19/11 7/6/11
f 5/15/12 11/17/12 12/20/12
f 3/16/13 9/18/13 10/21/13
f 1/3/14 51/22/14 8/23/14
f 50/24/15 7/6/15 14/19/15
f 5/15/16 13/25/16 6/8/16
f 14/19/17 20/26/17 21/27/17
f 12/20/18 18/28/18 19/29/18
f 10/21/19 16/30/19 17/31/19
f 8/23/20 51/32/20 15/33/20
f 50/34/21 14/19/21 21/27/21
f 12/20/22 20/26/22 13/25/22
f 10/21/23 18/28/23 11/17/23
f 8/23/24 16/30/24 9/18/24
f 16/30/25 59/35/25 61/36/25
f 15/33/26 51/37/26 22/38/26
f 50/39/27 21/27/27 28/40/27
f 19/29/28 27/41/28 20/26/28
f 18/28/29 61/36/29 63/42/29
f 15/33/30 23/43/30 16/30/30
f 21/27/31 27/41/31 28/40/31
f 18/28/32 60/44/32 26/45/32
f 50/46/33 28/40/33 35/47/33
f 26/45/34 34/48/34 27/41/34
f 23/43/36 29/52/36 30/53/36
f 27/41/37 35/47/37 28/40/37
f 60/44/38 32/54/38 33/55/38
f 22/38/40 51/58/40 29/52/40
f 30/53/41 36/59/41 37/60/41
f 34/48/42 42/61/42 35/47/42
f 33/55/43 39/62/43 40/63/43
f 30/53/44 38/64/44 31/65/44
f 29/52/45 51/66/45 36/59/45
f 50/67/46 35/47/46 42/61/46
f 34/48/47 40/63/47 41/68/47
f 32/54/48 38/64/48 39/62/48
f 41/69/49 49/70/49 42/71/49
f 39/72/50 47/73/50 40/74/50
f 37/75/51 45/76/51 38/77/51
f 36/78/52 51/79/52 43/80/52
f 50/81/53 42/71/53 49/70/53
f 41/69/54 47/73/54 48/82/54
f 39/72/55 45/76/55 46/83/55
f 37/75/56 43/80/56 44/84/56
f 43/80/57 51/85/57 52/1/57
f 50/86/58 49/70/58 58/5/58
f 48/82/59 56/7/59 57/9/59
f 46/83/60 54/10/60 55/12/60
f 44/84/61 52/1/61 53/14/61
f 48/82/62 58/5/62 49/70/62
f 46/83/63 56/7/63 47/73/63
f 44/84/64 54/10/64 45/76/64
f 64/87/66 31/65/66 32/54/66
f 59/35/69 30/53/69 31/65/69
f 60/44/71 70/87/71 66/44/71
f 61/36/71 69/42/71 67/36/71
f 63/42/71 66/44/71 69/42/71
f 62/91/71 70/87/71 68/91/71
f 59/35/71 68/91/71 65/35/71
f 59/35/71 67/36/71 65/35/71
f 56/7/3 5/15/3 6/8/3
f 54/10/4 3/16/4 4/11/4
f 52/1/5 1/3/5 2/13/5
f 58/5/6 57/9/6 6/8/6
f 55/12/7 4/11/7 5/15/7
f 54/10/8 53/14/8 2/13/8
f 3/16/9 10/21/9 11/17/9
f 1/3/10 8/23/10 9/18/10
f 6/8/11 13/25/11 14/19/11
f 5/15/12 4/11/12 11/17/12
f 3/16/13 2/13/13 9/18/13
f 5/15/16 12/20/16 13/25/16
f 14/19/17 13/25/17 20/26/17
f 12/20/18 11/17/18 18/28/18
f 10/21/19 9/18/19 16/30/19
f 12/20/22 19/29/22 20/26/22
f 10/21/23 17/31/23 18/28/23
f 8/23/24 15/33/24 16/30/24
f 61/36/25 17/31/25 16/30/25
f 16/30/25 23/43/25 59/35/25
f 19/29/28 26/45/28 27/41/28
f 18/28/29 17/31/29 61/36/29
f 15/33/30 22/38/30 23/43/30
f 21/27/31 20/26/31 27/41/31
f 26/45/32 19/29/32 18/28/32
f 18/28/32 63/42/32 60/44/32
f 26/45/34 33/55/34 34/48/34
f 23/43/36 22/38/36 29/52/36
f 27/41/37 34/48/37 35/47/37
f 33/55/38 26/45/38 60/44/38
f 60/44/38 64/87/38 32/54/38
f 30/53/41 29/52/41 36/59/41
f 34/48/42 41/68/42 42/61/42
f 33/55/43 32/54/43 39/62/43
f 30/53/44 37/60/44 38/64/44
f 34/48/47 33/55/47 40/63/47
f 32/54/48 31/65/48 38/64/48
f 41/69/49 48/82/49 49/70/49
f 39/72/50 46/83/50 47/73/50
f 37/75/51 44/84/51 45/76/51
f 41/69/54 40/74/54 47/73/54
f 39/72/55 38/77/55 45/76/55
f 37/75/56 36/78/56 43/80/56
f 48/82/59 47/73/59 56/7/59
f 46/83/60 45/76/60 54/10/60
f 44/84/61 43/80/61 52/1/61
f 48/82/62 57/9/62 58/5/62
f 46/83/63 55/12/63 56/7/63
f 44/84/64 53/14/64 54/10/64
f 64/87/66 62/91/66 31/65/66
f 31/65/69 62/91/69 59/35/69
f 59/35/69 23/43/69 30/53/69
f 60/44/71 64/87/71 70/87/71
f 61/36/71 63/42/71 69/42/71
f 63/42/71 60/44/71 66/44/71
f 62/91/71 64/87/71 70/87/71
f 59/35/71 62/91/71 68/91/71
f 59/35/71 61/36/71 67/36/71
g leye_black
usemtl black
f 25/49/35 75/50/35 74/51/35
f 24/56/39 71/57/39 75/50/39
f 64/87/65 72/88/65 74/51/65
f 59/35/67 76/89/67 61/36/67
f 63/42/68 72/88/68 60/44/68
f 61/36/70 73/90/70 63/42/70
f 76/89/72 71/57/72 24/56/72
f 72/88/73 73/90/73 25/49/73
f 74/51/73 72/88/73 25/49/73
f 74/51/74 62/91/74 64/87/74
f 75/50/75 59/35/75 62/91/75
f 76/89/76 25/49/76 73/90/76
f 25/49/77 24/56/77 75/50/77
f 64/87/78 60/44/78 72/88/78
f 59/35/79 71/57/79 76/89/79
f 63/42/68 73/90/68 72/88/68
f 61/36/80 76/89/80 73/90/80
f 74/51/81 75/50/81 62/91/81
f 75/50/82 71/57/82 59/35/82
f 76/89/76 24/56/76 25/49/76
